<svg width="35" height="35" viewBox="0 0 35 35" fill="none" xmlns="http://www.w3.org/2000/svg">
<path d="M17.5 2.1875C13.4541 2.23659 9.58779 3.86563 6.72671 6.72671C3.86563 9.58779 2.23659 13.4541 2.1875 17.5C2.23659 21.5459 3.86563 25.4122 6.72671 28.2733C9.58779 31.1344 13.4541 32.7634 17.5 32.8125C21.5459 32.7634 25.4122 31.1344 28.2733 28.2733C31.1344 25.4122 32.7634 21.5459 32.8125 17.5C32.7634 13.4541 31.1344 9.58779 28.2733 6.72671C25.4122 3.86563 21.5459 2.23659 17.5 2.1875ZM26.25 18.5938H18.5938V26.25H16.4062V18.5938H8.75V16.4062H16.4062V8.75H18.5938V16.4062H26.25V18.5938Z" fill="#1BA752"/>
</svg>
