<svg width="34" height="34" viewBox="0 0 34 34" fill="none" xmlns="http://www.w3.org/2000/svg">
<path d="M9.91683 10.6251C13.8288 10.6251 17.0002 9.03942 17.0002 7.08342C17.0002 5.12741 13.8288 3.54175 9.91683 3.54175C6.00481 3.54175 2.8335 5.12741 2.8335 7.08342C2.8335 9.03942 6.00481 10.6251 9.91683 10.6251Z" stroke="#65C8CF" stroke-linecap="round" stroke-linejoin="round"/>
<path d="M2.8335 7.0835V12.0418C2.8335 13.9975 6.0047 15.5835 9.91683 15.5835C13.829 15.5835 17.0002 13.9975 17.0002 12.0418V7.0835" stroke="#65C8CF" stroke-linecap="round" stroke-linejoin="round"/>
<path d="M2.8335 12.0417V17.0001C2.8335 18.9558 6.0047 20.5417 9.91683 20.5417C13.829 20.5417 17.0002 18.9558 17.0002 17.0001V12.0417" stroke="#65C8CF" stroke-linecap="round" stroke-linejoin="round"/>
<path d="M2.8335 17V21.9583C2.8335 23.914 6.0047 25.5 9.91683 25.5C13.829 25.5 17.0002 23.914 17.0002 21.9583V17" stroke="#65C8CF" stroke-linecap="round" stroke-linejoin="round"/>
<path d="M2.8335 21.9585V26.9168C2.8335 28.8725 6.0047 30.4585 9.91683 30.4585C13.829 30.4585 17.0002 28.8725 17.0002 26.9168V21.9585" stroke="#65C8CF" stroke-linecap="round" stroke-linejoin="round"/>
<path d="M24.0833 20.5418C27.9954 20.5418 31.1667 18.9562 31.1667 17.0002C31.1667 15.0442 27.9954 13.4585 24.0833 13.4585C20.1713 13.4585 17 15.0442 17 17.0002C17 18.9562 20.1713 20.5418 24.0833 20.5418Z" stroke="#65C8CF" stroke-linecap="round" stroke-linejoin="round"/>
<path d="M17 17V21.9583C17 23.914 20.1712 25.5 24.0833 25.5C27.9955 25.5 31.1667 23.914 31.1667 21.9583V17" stroke="#65C8CF" stroke-linecap="round" stroke-linejoin="round"/>
<path d="M17 21.9585V26.9168C17 28.8725 20.1712 30.4585 24.0833 30.4585C27.9955 30.4585 31.1667 28.8725 31.1667 26.9168V21.9585" stroke="#65C8CF" stroke-linecap="round" stroke-linejoin="round"/>
</svg>
