<svg width="18" height="18" viewBox="0 0 18 18" fill="none" xmlns="http://www.w3.org/2000/svg">
<path d="M8.95695 0.9375H10.125C10.4356 0.9375 10.6875 1.18934 10.6875 1.5C10.6875 1.81066 10.4356 2.0625 10.125 2.0625H9C7.21633 2.0625 5.93517 2.06369 4.96019 2.19478C4.00138 2.32369 3.42334 2.56886 2.9961 2.9961C2.56886 3.42334 2.32369 4.00138 2.19478 4.96019C2.06369 5.93517 2.0625 7.21633 2.0625 9C2.0625 10.7836 2.06369 12.0648 2.19478 13.0398C2.32369 13.9986 2.56886 14.5766 2.9961 15.0039C3.42334 15.4312 4.00138 15.6763 4.96019 15.8052C5.93517 15.9363 7.21633 15.9375 9 15.9375C10.7836 15.9375 12.0648 15.9363 13.0398 15.8052C13.9986 15.6763 14.5766 15.4312 15.0039 15.0039C15.4312 14.5766 15.6763 13.9986 15.8052 13.0398C15.9363 12.0648 15.9375 10.7836 15.9375 9V7.875C15.9375 7.56435 16.1893 7.3125 16.5 7.3125C16.8106 7.3125 17.0625 7.56435 17.0625 7.875V9.04305C17.0625 10.7743 17.0625 12.1311 16.9202 13.1897C16.7745 14.2732 16.4705 15.1283 15.7994 15.7994C15.1283 16.4705 14.2732 16.7745 13.1897 16.9202C12.1311 17.0625 10.7743 17.0625 9.04305 17.0625H8.95695C7.22567 17.0625 5.86889 17.0625 4.81028 16.9202C3.72673 16.7745 2.87171 16.4705 2.2006 15.7994C1.5295 15.1283 1.22549 14.2732 1.07981 13.1897C0.937485 12.1311 0.937493 10.7743 0.9375 9.04305V8.95695C0.937493 7.22567 0.937485 5.86889 1.07981 4.81028C1.22549 3.72673 1.5295 2.87171 2.2006 2.2006C2.87171 1.5295 3.72673 1.22549 4.81028 1.07981C5.86889 0.937485 7.22567 0.937493 8.95695 0.9375Z" fill="#A28CC1"/>
<path d="M13.1101 7.06789C13.3487 7.26677 13.381 7.62144 13.1822 7.86009L11.8105 9.50612C11.5642 9.80177 11.3421 10.0683 11.1347 10.2557C10.9089 10.4594 10.6247 10.641 10.25 10.641C9.87542 10.641 9.59109 10.4594 9.36542 10.2557C9.15797 10.0683 8.93589 9.80177 8.68952 9.50612L8.47022 9.24294C8.19212 8.90919 8.02134 8.70639 7.88064 8.57934C7.81539 8.52047 7.77669 8.49692 7.75817 8.48799C7.75607 8.48694 7.75427 8.48619 7.75284 8.48552L7.74999 8.48439C7.74834 8.48507 7.74564 8.48612 7.74189 8.48799C7.72329 8.49692 7.68459 8.52047 7.61934 8.57934C7.47868 8.70639 7.3079 8.90919 7.02981 9.24294L5.68214 10.8601C5.48326 11.0987 5.12857 11.131 4.88991 10.9322C4.65125 10.7333 4.61901 10.3786 4.81789 10.1399L6.18952 8.49399C6.43586 8.19827 6.65795 7.93172 6.8654 7.74437C7.0911 7.54059 7.3754 7.35905 7.74999 7.35905C8.12462 7.35905 8.40894 7.54059 8.63462 7.74437C8.84207 7.93172 9.06414 8.19827 9.31052 8.49392L9.52982 8.75709C9.80792 9.09084 9.97869 9.29364 10.1194 9.42069C10.1846 9.47957 10.2233 9.50312 10.2419 9.51204C10.2456 9.51392 10.2483 9.51497 10.25 9.51564C10.25 9.51564 10.2521 9.51482 10.2535 9.51422C10.2535 9.51422 10.2563 9.51294 10.2581 9.51204C10.2767 9.50312 10.3154 9.47957 10.3807 9.42069C10.5213 9.29364 10.6922 9.09084 10.9702 8.75709L12.3179 7.13991C12.5168 6.90125 12.8714 6.86901 13.1101 7.06789Z" fill="#A28CC1"/>
<path fill-rule="evenodd" clip-rule="evenodd" d="M14.25 0.9375C12.6967 0.9375 11.4375 2.1967 11.4375 3.75C11.4375 5.3033 12.6967 6.5625 14.25 6.5625C15.8033 6.5625 17.0625 5.3033 17.0625 3.75C17.0625 2.1967 15.8033 0.9375 14.25 0.9375ZM12.5625 3.75C12.5625 2.81802 13.3181 2.0625 14.25 2.0625C15.182 2.0625 15.9375 2.81802 15.9375 3.75C15.9375 4.68198 15.182 5.4375 14.25 5.4375C13.3181 5.4375 12.5625 4.68198 12.5625 3.75Z" fill="#A28CC1"/>
</svg>
