<svg width="28" height="23" viewBox="0 0 28 23" fill="none" xmlns="http://www.w3.org/2000/svg">
<path d="M26.7183 1.4025C26.3918 1.22803 26.0238 1.14635 25.6542 1.16633C25.2845 1.18631 24.9274 1.30719 24.6217 1.51583L19.9183 4.68917V3.54167C19.9183 2.60236 19.5452 1.70152 18.881 1.03733C18.2168 0.373139 17.316 0 16.3767 0H3.54167C2.60236 0 1.70152 0.373139 1.03733 1.03733C0.373139 1.70152 0 2.60236 0 3.54167V18.955C0 19.8943 0.373139 20.7951 1.03733 21.4593C1.70152 22.1235 2.60236 22.4967 3.54167 22.4967H16.3767C17.316 22.4967 18.2168 22.1235 18.881 21.4593C19.5452 20.7951 19.9183 19.8943 19.9183 18.955V17.8075L24.6217 20.9808C24.9637 21.2018 25.362 21.3198 25.7692 21.3208C26.036 21.3239 26.3008 21.2735 26.548 21.1728C26.7952 21.0721 27.0197 20.923 27.2084 20.7342C27.3971 20.5455 27.5462 20.321 27.647 20.0738C27.7477 19.8267 27.798 19.5619 27.795 19.295V3.20167C27.7952 2.83241 27.6951 2.47003 27.5055 2.15317C27.3159 1.83632 27.0438 1.57687 26.7183 1.4025ZM18.5017 18.955C18.5017 19.5186 18.2778 20.0591 17.8793 20.4576C17.4808 20.8561 16.9403 21.08 16.3767 21.08H3.54167C2.97808 21.08 2.43758 20.8561 2.03906 20.4576C1.64055 20.0591 1.41667 19.5186 1.41667 18.955V3.54167C1.41667 2.97808 1.64055 2.43758 2.03906 2.03907C2.43758 1.64055 2.97808 1.41667 3.54167 1.41667H16.3767C16.9403 1.41667 17.4808 1.64055 17.8793 2.03907C18.2778 2.43758 18.5017 2.97808 18.5017 3.54167V18.955ZM26.3783 19.295C26.3798 19.4062 26.35 19.5156 26.2924 19.6108C26.2348 19.7059 26.1517 19.783 26.0525 19.8333C25.954 19.888 25.8423 19.9143 25.7297 19.9093C25.6172 19.9043 25.5082 19.8682 25.415 19.805L19.9183 16.0933V6.40333L25.415 2.69167C25.5082 2.62846 25.6172 2.59235 25.7297 2.58735C25.8423 2.58234 25.954 2.60865 26.0525 2.66333C26.1517 2.71364 26.2348 2.79075 26.2924 2.8859C26.35 2.98106 26.3798 3.09045 26.3783 3.20167V19.295Z" fill="#888888"/>
</svg>
